<?xml version="1.0" standalone="no"?>
<!DOCTYPE svg PUBLIC "-//W3C//DTD SVG 20010904//EN"
 "http://www.w3.org/TR/2001/REC-SVG-20010904/DTD/svg10.dtd">
<svg version="1.0" xmlns="http://www.w3.org/2000/svg"
 width="260.000000pt" height="260.000000pt" viewBox="0 0 260.000000 260.000000"
 preserveAspectRatio="xMidYMid meet">
<metadata>
Created by potrace 1.11, written by Peter Selinger 2001-2013
</metadata>
<g transform="translate(0.000000,260.000000) scale(0.100000,-0.100000)"
fill="#000000" stroke="none">
<path d="M1250 2594 c0 -5 -12 -9 -27 -10 -116 -2 -294 -43 -426 -99 -75 -32
-226 -118 -269 -154 -7 -6 -31 -26 -52 -43 -209 -173 -373 -441 -431 -707 -3
-11 -7 -29 -9 -39 -2 -10 -7 -45 -11 -77 -4 -33 -9 -72 -11 -86 -2 -17 3 -36
15 -50 l19 -24 426 0 c407 -1 427 0 444 18 25 28 24 269 0 294 -15 14 -48 16
-257 17 -133 0 -241 4 -241 8 0 5 17 43 39 86 152 303 469 505 807 516 375 13
721 -191 886 -519 51 -101 71 -92 -193 -91 -249 1 -283 -4 -291 -45 -2 -13 -3
-75 -3 -137 1 -91 5 -116 18 -130 16 -15 57 -17 430 -18 427 -1 476 3 478 40
2 29 1 76 -1 81 -4 9 -6 18 -15 80 -5 33 -9 62 -10 65 -29 125 -70 234 -127
340 -194 362 -569 620 -968 666 -30 4 -59 8 -65 8 -5 1 -16 5 -22 9 -7 5 -13
4 -13 -1 0 -5 -17 -6 -40 -2 -23 4 -43 3 -46 -2 -3 -5 -12 -4 -20 3 -8 6 -14
8 -14 3z"/>
<path d="M111 956 c-44 -19 -38 -74 24 -207 68 -148 136 -242 275 -379 196
-194 456 -318 740 -354 19 -3 35 -5 35 -6 0 -5 221 -6 230 -1 5 3 23 6 40 7
16 1 44 5 60 8 17 3 45 9 64 12 50 8 209 62 271 92 298 143 533 393 653 695
32 80 33 88 8 118 -18 22 -25 23 -142 24 -68 1 -135 -3 -149 -7 -18 -6 -38
-32 -69 -93 -145 -279 -420 -473 -724 -511 -295 -37 -583 61 -792 271 -77 76
-152 182 -194 273 -14 30 -33 55 -45 59 -32 10 -261 10 -285 -1z"/>
</g>
</svg>
